<?xml version="1.0" encoding="utf-8"?>
<!-- Generator: Adobe Illustrator 27.5.0, SVG Export Plug-In . SVG Version: 6.00 Build 0)  -->
<svg version="1.1" xmlns="http://www.w3.org/2000/svg" xmlns:xlink="http://www.w3.org/1999/xlink" x="0px" y="0px"
	 viewBox="0 0 1920 1080" style="enable-background:new 0 0 1920 1080;" xml:space="preserve">
<g id="BACKGROUND">
	<rect style="fill:#E4F0F4;" width="1920" height="1080"/>
</g>
<g id="OBJECTS">
	<rect style="fill:#F9AA0D;" width="1920" height="182.56"/>
	<g>
		<ellipse style="fill:#A6C1C9;" cx="1349.629" cy="1001.284" rx="504.202" ry="11.356"/>
		<g>
			<g>
				<path style="fill:#A1D1C3;" d="M1848.194,886.029c-1.638,12.966-6.064,23.594-17.071,33.493
					c-2.527,2.267-5.114,4.345-7.721,6.243c-17.081,12.396-37.818,18.739-58.925,18.739H861.321
					c-19.009-2.157-27.41-18.619-30.436-37.988c-0.52-3.326-0.879-6.743-1.089-10.179c-0.769-11.627-0.01-23.564,1.249-33.593
					c0.899-7.162,1.998-14.904,3.866-22.865c0.719-3.027,1.538-6.093,2.507-9.16c0.3-0.969,0.619-1.938,0.959-2.907
					c0.879-2.567,1.868-5.145,2.987-7.711c8.401-19.329,23.844-37.968,54.031-50.474c3.356-1.389,6.882-2.747,10.538-4.076
					c5.444-1.988,11.198-3.906,17.171-5.764c1.848-0.579,3.716-1.149,5.604-1.708c52.762-15.803,120.617-27.62,151.403-39.936
					c3.227-1.289,6.833-2.977,10.778-4.994c0.24-0.12,0.479-0.25,0.719-0.37c3.516-1.818,7.282-3.885,11.267-6.163
					c44.241-25.302,115.333-76.516,162.721-92.948c0.769-0.27,1.548-0.529,2.327-0.789c4.865-1.648,9.759-3.146,14.634-4.515
					c8.431-2.367,16.802-4.345,24.903-5.994c2.807-0.569,5.584-1.109,8.321-1.608c37.379-6.782,67.156-6.782,67.156-6.782
					c83.438-1.308,168.644,2.467,233.772,10.009c1.478,0.17,2.927,0.35,4.375,0.519h0.01c5.155,0.619,10.169,1.259,15.044,1.928
					c4.645,0.629,9.17,1.279,13.545,1.958c31.186,4.825,55.239,10.698,68.634,17.391c25.122,12.566,63.55,39.227,91.469,60.903
					c3.206,2.487,6.273,4.914,9.16,7.242c2.837,2.278,5.494,4.455,7.961,6.533c1.039,0.869,2.048,1.728,3.017,2.567
					c5.804,4.985,10.219,9.14,12.696,12.037c1.119,1.299,1.838,2.327,2.128,3.077c0.579,1.518,1.079,4.365,1.498,8.251
					c0.29,2.727,0.549,5.973,0.769,9.619c0.579,9.47,0.939,21.676,1.159,34.842c0.359,21.366,0.359,45.22,0.359,63.88
					C1848.534,855.802,1849.943,872.244,1848.194,886.029z"/>
				<path style="fill:#C3EADE;" d="M1205.787,851.007c0,0,78.658,13.627,161.455,15.898c82.797,2.271,165.595-21.576,165.595-21.576
					S1421.061,921.414,1205.787,851.007z"/>
				<path style="fill:#C3EADE;" d="M996.871,764.512c0,0,102.919,14.684,293.635,19.705c190.717,5.02,286.203,3.558,304.62-3.801
					c0,0,9.702,16.22-159.523,14.165C1266.378,792.527,1024.44,790.398,996.871,764.512z"/>
			</g>
			<g>
				<g>
					<path style="fill:#477F6D;" d="M1374.255,918.526c-7.881-84.438,16.817-190.207,17.068-191.265l2.916,0.691
						c-0.249,1.054-24.834,106.354-17,190.295L1374.255,918.526z"/>
				</g>
				<g>
					<path style="fill:#477F6D;" d="M1650.865,802.971l-2.88-0.831c0.147-0.508,14.642-50.93,12.453-64.067
						c-2.133-12.803-22.96-26.1-23.17-26.233l1.6-2.534c0.904,0.571,22.172,14.148,24.526,28.275
						C1665.694,751.385,1651.472,800.872,1650.865,802.971z"/>
				</g>
				<g>
					
						<rect x="1706.877" y="805.6" transform="matrix(0.5854 -0.8107 0.8107 0.5854 74.1753 1759.2549)" style="fill:#477F6D;" width="100.857" height="2.996"/>
				</g>
				<g>
					<path style="fill:#477F6D;" d="M1829.925,703.03c-5.035,0.899-14.764,2.248-27.75,2.248c-3.816,0-7.901-0.12-12.236-0.389
						c-23.894-1.539-59.884-8.551-95.675-33.253c-43.782-30.217-68.005-56.258-77.555-67.646c1.478,0.17,2.927,0.35,4.375,0.519
						h0.01c10.599,12.226,34.212,36.6,74.868,64.659c55.759,38.478,112.576,34.062,130.946,31.296
						C1827.947,701.332,1828.955,702.191,1829.925,703.03z"/>
				</g>
				<g>
					<path style="fill:#477F6D;" d="M1095.03,814.186l-2.672-1.356c18.311-36.081,44.136-69.18,74.681-95.718l1.966,2.263
						C1138.749,745.662,1113.169,778.448,1095.03,814.186z"/>
				</g>
				<g>
					<path style="fill:#477F6D;" d="M961.721,776.17c-5.494,13.785-58.146,49.885-73.389,55.429
						c-4.355,1.578-10.539,2.178-17.351,2.178c-11.308,0-24.333-1.638-33.563-3.057c0.3-0.969,0.619-1.938,0.959-2.907
						c14.564,2.218,38.178,4.885,48.936,0.969c15.823-5.754,66.716-41.415,71.621-53.721c0.31-0.769,0.389-1.408,0.23-1.738
						c-2.038-4.086-18.679-9.31-36.06-13.535c1.848-0.579,3.716-1.149,5.604-1.708c15.103,3.866,30.646,8.94,33.133,13.905
						C962.41,773.123,962.37,774.532,961.721,776.17z"/>
				</g>
			</g>
			<path style="fill:#543E4E;" d="M1818.947,693.93c-19.319,1.858-55.749,1.378-95.325-19.698
				c-44.171-23.514-75.776-54.12-87.484-67.795c4.645,0.629,9.17,1.279,13.545,1.958c31.186,4.825,55.239,10.698,68.634,17.391
				c25.122,12.566,63.55,39.227,91.469,60.903C1812.993,689.176,1816.06,691.603,1818.947,693.93z"/>
			<path style="fill:#543E4E;" d="M1393.215,731.2c-0.999,0.02-2.008,0.03-3.007,0.04c-71.491,0.929-138.977-0.25-180.641-2.497
				c-11.547-0.619-48.446,2.268-44.661-12.117c3.666-13.944,97.023-94.086,246.938-99.63c1.029-0.04,2.058-0.08,3.087-0.11
				c3.686-0.11,7.402-0.17,11.158-0.19c158.226-0.759,258.915,32.554,266.486,74.198
				C1697.62,718.613,1537.866,729.222,1393.215,731.2z"/>
			<path style="fill:#68A592;" d="M1848.194,886.029c-1.638,12.966-6.064,23.594-17.071,33.493
				c-2.527,2.267-5.114,4.345-7.721,6.243c-17.081,12.396-37.818,18.739-58.925,18.739H861.321
				c-19.009-2.157-27.41-18.619-30.436-37.988c5.634,4.465,14.804,9.13,29.308,10.738c5.274,0.589,34.702,0.969,79.822,1.209
				c-0.22-2.837-0.33-5.704-0.33-8.59c0-60.523,49.056-109.589,109.579-109.589c60.523,0,109.589,49.066,109.589,109.589
				c0,2.987-0.12,5.953-0.36,8.88c124.503-0.1,265.777-0.46,377.674-0.789c-0.2-2.667-0.3-5.374-0.3-8.091
				c0-60.523,49.056-109.589,109.579-109.589c54.52,0,99.75,39.826,108.181,91.969
				C1761.31,892.062,1818.027,890.554,1848.194,886.029z"/>
			<g>
				<g>
					
						<ellipse transform="matrix(0.7071 -0.7071 0.7071 0.7071 -338.0744 1005.8252)" style="fill:#33222E;" cx="1045.101" cy="911.004" rx="97.093" ry="97.093"/>
				</g>
				<g>
					<path style="fill:#543E4E;" d="M1041.952,995.969c-46.992,0-85.222-38.23-85.222-85.221c0-46.992,38.23-85.222,85.222-85.222
						c46.992,0,85.222,38.23,85.222,85.222C1127.174,957.738,1088.944,995.969,1041.952,995.969z M1041.952,828.521
						c-45.339,0-82.225,36.886-82.225,82.226c0,45.339,36.886,82.225,82.225,82.225c45.339,0,82.225-36.886,82.225-82.225
						C1124.177,865.407,1087.291,828.521,1041.952,828.521z"/>
				</g>
				<g>
					<g>
						
							<ellipse transform="matrix(0.7071 -0.7071 0.7071 0.7071 -338.0743 1005.8252)" style="fill:#756A6C;" cx="1045.101" cy="911.004" rx="63.404" ry="63.404"/>
					</g>
					<g>
						<g>
							<g>
								<path style="fill:#5B4D50;" d="M1046.408,901.801c0,0-24.204-24.338-11.445-43.281c0,0,9.351-8.357,23.157-1.481
									C1058.12,857.038,1041.152,872.142,1046.408,901.801z"/>
							</g>
							<g>
								<path style="fill:#5B4D50;" d="M1043.387,918.243c0,0,23.927,24.61,10.956,43.408c0,0-9.445,8.251-23.172,1.22
									C1031.171,962.87,1048.309,947.959,1043.387,918.243z"/>
							</g>
						</g>
						<g>
							<g>
								<path style="fill:#5B4D50;" d="M1038.083,915.201c0,0,2.897,34.202-19.054,40.512c0,0-12.535,0.391-18.691-13.75
									C1000.339,941.963,1023.046,941.299,1038.083,915.201z"/>
							</g>
							<g>
								<path style="fill:#5B4D50;" d="M1050.966,904.547c0,0-2.511-34.232,19.509-40.295c0,0,12.539-0.249,18.535,13.961
									C1089.01,878.213,1066.297,878.62,1050.966,904.547z"/>
							</g>
						</g>
						<g>
							<g>
								<path style="fill:#5B4D50;" d="M1036.303,910.477c0,0-17.245,29.678-38.845,22.257c0,0-10.492-6.87-7.424-21.984
									C990.034,910.75,1009.015,923.23,1036.303,910.477z"/>
							</g>
							<g>
								<path style="fill:#5B4D50;" d="M1052.967,909.139c0,0,17.578-29.482,39.093-21.817c0,0,10.414,6.988,7.175,22.067
									C1099.235,909.389,1080.397,896.695,1052.967,909.139z"/>
							</g>
						</g>
						<g>
							<g>
								<path style="fill:#5B4D50;" d="M1037.554,905.586c0,0-31.148,14.42-44.586-4.048c0,0-4.654-11.645,6.529-22.267
									C999.497,879.271,1007.886,900.382,1037.554,905.586z"/>
							</g>
							<g>
								<path style="fill:#5B4D50;" d="M1051.971,914.048c0,0,31.309-14.067,44.537,4.551c0,0,4.523,11.697-6.779,22.192
									C1089.729,940.791,1081.579,919.587,1051.971,914.048z"/>
							</g>
						</g>
						<g>
							<g>
								<path style="fill:#5B4D50;" d="M1041.384,902.298c0,0-33.786-6.054-34.2-28.89c0,0,2.867-12.209,18.119-14.495
									C1025.303,858.913,1020.067,881.017,1041.384,902.298z"/>
							</g>
							<g>
								<path style="fill:#5B4D50;" d="M1048.341,917.499c0,0,33.716,6.435,33.872,29.274c0,0-3.004,12.176-18.282,14.29
									C1063.931,961.062,1069.416,939.018,1048.341,917.499z"/>
							</g>
						</g>
					</g>
					<g>
						<path style="fill:#938587;" d="M1058.38,909.695c0,6.818-5.527,12.344-12.344,12.344c-6.818,0-12.344-5.526-12.344-12.344
							c0-6.818,5.527-12.344,12.344-12.344C1052.854,897.351,1058.38,902.878,1058.38,909.695z"/>
					</g>
				</g>
			</g>
			<g>
				<g>
					
						<ellipse transform="matrix(0.7071 -0.7071 0.7071 0.7071 -162.3988 1429.9436)" style="fill:#33222E;" cx="1644.895" cy="911.004" rx="97.093" ry="97.093"/>
				</g>
				<g>
					<path style="fill:#543E4E;" d="M1641.746,995.969c-46.992,0-85.222-38.23-85.222-85.221c0-46.992,38.23-85.222,85.222-85.222
						c46.991,0,85.222,38.23,85.222,85.222C1726.968,957.738,1688.738,995.969,1641.746,995.969z M1641.746,828.521
						c-45.339,0-82.225,36.886-82.225,82.226c0,45.339,36.886,82.225,82.225,82.225c45.339,0,82.225-36.886,82.225-82.225
						C1723.971,865.407,1687.085,828.521,1641.746,828.521z"/>
				</g>
				<g>
					<g>
						
							<ellipse transform="matrix(0.2298 -0.9732 0.9732 0.2298 380.3418 2302.5913)" style="fill:#756A6C;" cx="1644.895" cy="911.004" rx="63.404" ry="63.404"/>
					</g>
					<g>
						<g>
							<g>
								<path style="fill:#5B4D50;" d="M1646.202,901.801c0,0-24.203-24.338-11.445-43.281c0,0,9.351-8.357,23.156-1.481
									C1657.914,857.038,1640.946,872.142,1646.202,901.801z"/>
							</g>
							<g>
								<path style="fill:#5B4D50;" d="M1643.181,918.243c0,0,23.928,24.61,10.956,43.408c0,0-9.445,8.251-23.172,1.22
									C1630.965,962.87,1648.103,947.959,1643.181,918.243z"/>
							</g>
						</g>
						<g>
							<g>
								<path style="fill:#5B4D50;" d="M1637.877,915.201c0,0,2.897,34.202-19.053,40.512c0,0-12.535,0.391-18.691-13.75
									C1600.133,941.963,1622.84,941.299,1637.877,915.201z"/>
							</g>
							<g>
								<path style="fill:#5B4D50;" d="M1650.76,904.547c0,0-2.511-34.232,19.509-40.295c0,0,12.538-0.249,18.535,13.961
									C1688.804,878.213,1666.092,878.62,1650.76,904.547z"/>
							</g>
						</g>
						<g>
							<g>
								<path style="fill:#5B4D50;" d="M1636.097,910.477c0,0-17.245,29.678-38.845,22.257c0,0-10.492-6.87-7.424-21.984
									C1589.829,910.75,1608.809,923.23,1636.097,910.477z"/>
							</g>
							<g>
								<path style="fill:#5B4D50;" d="M1652.761,909.139c0,0,17.578-29.482,39.093-21.817c0,0,10.414,6.988,7.175,22.067
									C1699.029,909.389,1680.191,896.695,1652.761,909.139z"/>
							</g>
						</g>
						<g>
							<g>
								<path style="fill:#5B4D50;" d="M1637.348,905.586c0,0-31.148,14.42-44.585-4.048c0,0-4.655-11.645,6.528-22.267
									C1599.291,879.271,1607.68,900.382,1637.348,905.586z"/>
							</g>
							<g>
								<path style="fill:#5B4D50;" d="M1651.766,914.048c0,0,31.309-14.067,44.537,4.551c0,0,4.523,11.697-6.779,22.192
									C1689.523,940.791,1681.373,919.587,1651.766,914.048z"/>
							</g>
						</g>
						<g>
							<g>
								<path style="fill:#5B4D50;" d="M1641.178,902.298c0,0-33.786-6.054-34.2-28.89c0,0,2.867-12.209,18.12-14.495
									C1625.098,858.913,1619.861,881.017,1641.178,902.298z"/>
							</g>
							<g>
								<path style="fill:#5B4D50;" d="M1648.135,917.499c0,0,33.716,6.435,33.872,29.274c0,0-3.004,12.176-18.282,14.29
									C1663.725,961.062,1669.211,939.018,1648.135,917.499z"/>
							</g>
						</g>
					</g>
					<g>
						<path style="fill:#938587;" d="M1658.175,909.695c0,6.818-5.527,12.344-12.344,12.344c-6.818,0-12.344-5.526-12.344-12.344
							c0-6.818,5.527-12.344,12.344-12.344C1652.648,897.351,1658.175,902.878,1658.175,909.695z"/>
					</g>
				</g>
			</g>
			<path style="fill:#FAFAFA;" d="M882.898,818.453c-11.607,5.424-30.616,3.446-41.534,1.648c1.029-2.367,2.158-4.725,3.416-7.062
				c7.122-13.265,18.12-25.891,35.571-36.02c4.555-2.647,9.559-5.114,15.043-7.392c3.356-1.389,6.882-2.747,10.538-4.076
				c18.61,1.488,39.926,4.165,40.565,8.611C947.626,782.113,899.939,810.502,882.898,818.453z"/>
			<path style="fill:#756A6C;" d="M1397.401,625.636c-4.895,12.496-14.004,40.116-28.249,99.211
				c-29.947,0.56-39.636-0.569-61.123-1.289c-1.239-0.04-2.507-0.08-3.826-0.12c-2.747-0.08-5.973-0.15-9.57-0.22
				c-5.854-0.11-12.696-0.21-20.088-0.34c-18.28-0.3-39.936-0.699-58.316-1.578c-23.105-1.089-41.055-2.917-40.725-6.183
				c0.989-9.839,54.49-47.488,126.76-70.872c19.529-6.323,40.436-11.597,62.052-15.004c7.072-1.109,14.224-2.028,21.426-2.707
				c3.097-0.29,6.203-0.539,9.31-0.749c0.559-0.04,1.129-0.07,1.698-0.11C1396.971,625.666,1397.181,625.646,1397.401,625.636z"/>
			<path style="fill:#756A6C;" d="M1681.218,693.921c-4.605,4.026-62.191,14.184-141.134,21.496c-4.465,0.409-9,0.809-13.605,1.209
				c-6.473,0.55-13.066,1.079-19.768,1.588c-15.033,1.129-30.606,2.138-46.549,2.957c-5.144,0.269-10.069,0.519-14.774,0.749
				c-9.02,0.449-17.261,0.829-24.813,1.169l10.998-98.991c43.702-1.129,83.168,1.109,116.741,5.634
				c13.335,1.788,25.731,3.945,37.099,6.403c4.795,1.029,9.41,2.118,13.835,3.247c2.677,0.689,5.294,1.398,7.831,2.118
				c13.834,3.936,25.522,8.341,34.771,13.055C1683.496,675.75,1687.281,688.616,1681.218,693.921z"/>
			<path style="fill:#756A6C;" d="M1809.787,686.689c-10.059,0.32-33.024-0.3-59.824-9.989c-3.366-1.209-6.792-2.567-10.259-4.085
				c-1.898-0.829-3.806-1.708-5.724-2.637c-3.126-1.508-6.283-3.157-9.449-4.945c-0.809-0.46-1.618-0.919-2.427-1.398
				c-30.716-18.04-57.347-41.105-72.42-55.239c31.186,4.825,55.239,10.698,68.634,17.391c8.201,4.096,17.81,9.7,28.009,16.142
				c2.717,1.708,5.484,3.486,8.271,5.314c1.838,1.199,3.696,2.427,5.564,3.676c2.707,1.798,5.434,3.646,8.161,5.524
				C1782.826,666.381,1797.35,677.029,1809.787,686.689z"/>
			<path style="fill:#FAFAFA;" d="M1848.174,770.856c-26.461,2.148-81.73,5.833-87.464-0.48
				c-7.572-8.321,10.598-43.152,16.662-48.446c4.595-4.036,45.11-6.343,65.248-6.862c1.119,1.299,1.838,2.327,2.128,3.077
				c0.579,1.518,1.079,4.365,1.498,8.251c0.29,2.727,0.549,5.973,0.769,9.619C1847.595,745.484,1847.955,757.69,1848.174,770.856z"
				/>
			<g>
				<path style="fill:#93878A;" d="M1364.317,629.242l-89.771,93.637c-18.28-0.3-39.936-0.699-58.316-1.578l86.035-77.055
					C1321.794,637.922,1342.701,632.648,1364.317,629.242z"/>
				<path style="fill:#93878A;" d="M1585.414,636.134l-78.703,82.08c-15.033,1.129-30.606,2.138-46.549,2.957
					c-5.144,0.269-10.069,0.519-14.774,0.749l102.927-92.188C1561.65,631.519,1574.046,633.677,1585.414,636.134z"/>
				<path style="fill:#93878A;" d="M1396.752,625.676l-88.722,97.882c-1.239-0.04-2.507-0.08-3.826-0.12
					c-2.747-0.08-5.973-0.15-9.57-0.22c25.172-26.681,63.65-67.526,91.11-96.683c3.097-0.29,6.203-0.539,9.31-0.749
					C1395.613,625.745,1396.182,625.716,1396.752,625.676z"/>
				<path style="fill:#93878A;" d="M1607.08,641.498l-66.996,73.919c-4.465,0.409-9,0.809-13.605,1.209
					c25.502-27.05,54.03-57.347,72.77-77.245C1601.926,640.07,1604.543,640.779,1607.08,641.498z"/>
			</g>
			<path style="fill:#93878A;" d="M1754.597,647.242l-20.617,22.735c-3.126-1.508-6.283-3.157-9.449-4.945
				c6.263-6.633,13.695-14.514,21.796-23.105C1749.044,643.636,1751.811,645.414,1754.597,647.242z"/>
			<path style="fill:#93878A;" d="M1768.322,656.442l-18.36,20.258c-3.366-1.209-6.792-2.567-10.259-4.085
				c5.884-6.233,12.846-13.625,20.457-21.696C1762.868,652.716,1765.595,654.564,1768.322,656.442z"/>
			<path style="fill:#543E4E;" d="M1267.924,612.88c-0.779,0.26-1.558,0.52-2.327,0.789
				c-47.388,16.432-118.48,67.646-162.721,92.948c-3.985,2.278-7.751,4.345-11.267,6.163c5.514,1.009,11.078,1.708,16.702,1.818
				c9.26,0.18,18.19-1.498,26.711-5.144c8.151-3.506,15.663-8.331,23.075-13.156c8.341-5.434,16.672-10.888,25.002-16.322
				c16.652-10.878,33.313-21.756,49.965-32.634l25.092-16.392c7.232-4.715,14.784-9.33,20.228-16.182
				c1.608-2.018,2.987-4.166,4.176-6.403C1277.683,609.733,1272.788,611.232,1267.924,612.88z"/>
			<path style="fill:#756A6C;" d="M1265.596,613.669c-47.388,16.432-118.48,67.646-162.721,92.948c0.3,0.02,0.589,0.02,0.889,0.03
				c9.26,0.18,18.19-1.498,26.711-5.144c8.151-3.506,15.662-8.331,23.074-13.156c8.341-5.434,16.672-10.888,25.003-16.322
				c16.652-10.878,33.313-21.756,49.965-32.634l25.092-16.392c4.875-3.176,9.889-6.313,14.314-10.119
				C1267.145,613.14,1266.365,613.399,1265.596,613.669z"/>
			<path style="fill:#68A592;" d="M829.796,896.338c-0.769-11.627-0.01-23.564,1.249-33.593c0.899-7.162,1.998-14.904,3.866-22.865
				c10.698,1.109,29.428,4.076,34.742,11.507C876.814,861.406,869.073,899.864,829.796,896.338z"/>
			<path style="fill:#BAE8D9;" d="M1270.76,726.285c0,0,1.652-39.789-6.607-41.447c-8.259-1.658-62.768,29.842-64.419,44.763
				C1198.081,744.522,1269.108,761.101,1270.76,726.285z"/>
			<path style="fill:#D3E2DE;" d="M913.564,782.113c-4.175,7.312-47.667,29.947-68.784,30.926
				c7.122-13.265,18.12-25.891,35.571-36.02C894.465,776.549,916.701,776.629,913.564,782.113z"/>
			<path style="fill:#D3E2DE;" d="M1847.016,736.014c-6.753,3.176-18.32,1.429-36.34,0.679
				c-26.84-1.119-37.159,15.383-37.459,15.883c0.2-0.479,6.872-15.972,11.347-21.566c3.566-4.465,44.461-4.715,61.682-4.615
				C1846.536,729.122,1846.796,732.368,1847.016,736.014z"/>
			<g>
				<path style="fill:#33222E;" d="M1414.932,616.885c-6.233,27.719-19.678,89.441-21.716,114.314
					c-0.999,0.02-2.008,0.03-3.007,0.04c1.958-24.653,15.293-86.005,21.636-114.244
					C1412.874,616.955,1413.903,616.915,1414.932,616.885z"/>
			</g>
			<path style="fill:#FEFEFE;" d="M1263.324,699.217c0,0-38.61,18.169-38.61,26.118c0,7.949,18.17,10.221,18.17,10.221
				s-48.831,2.271-31.797-13.627C1228.121,706.03,1263.324,699.217,1263.324,699.217z"/>
			<g>
				<path style="fill:#68A592;" d="M1359.473,762.81c0,1.372-0.45,2.696-1.282,3.937c-3.471,5.184-13.619,8.933-25.594,8.933
					c-11.975,0-22.123-3.749-25.595-8.933c-0.832-1.24-1.282-2.564-1.282-3.937c0-2.183,1.139-4.241,3.144-6.043
					c4.521-4.061,13.449-6.827,23.733-6.827c10.277,0,19.211,2.765,23.733,6.827C1358.334,758.568,1359.473,760.627,1359.473,762.81
					z"/>
				<path style="fill:#BAE8D9;" d="M1359.473,762.81c0,1.372-0.45,2.696-1.282,3.937h-51.189c-0.832-1.24-1.282-2.564-1.282-3.937
					c0-2.183,1.139-4.241,3.144-6.043h47.466C1358.334,758.568,1359.473,760.627,1359.473,762.81z"/>
			</g>
			<g>
				<path style="fill:#68A592;" d="M1625.872,754.605c0.11,1.368-0.233,2.723-0.963,4.026c-3.046,5.445-12.861,9.994-24.798,10.951
					c-11.937,0.957-22.352-1.969-26.227-6.859c-0.928-1.17-1.483-2.454-1.593-3.822c-0.174-2.176,0.796-4.319,2.651-6.275
					c4.182-4.409,12.86-7.88,23.111-8.702c10.245-0.822,19.371,1.221,24.203,4.907
					C1624.398,750.468,1625.698,752.429,1625.872,754.605z"/>
				<path style="fill:#BAE8D9;" d="M1625.872,754.605c0.11,1.368-0.233,2.723-0.963,4.026l-51.025,4.092
					c-0.928-1.17-1.483-2.454-1.593-3.822c-0.174-2.176,0.796-4.319,2.651-6.275l47.314-3.794
					C1624.398,750.468,1625.698,752.429,1625.872,754.605z"/>
			</g>
		</g>
	</g>
	<g>
		<path style="fill:#FFFFFF;" d="M1658.117,462.46h-475.409c0,0,17.828-15.451,40.41-15.451c22.582,0,33.279,3.565,48.729-1.189
			c15.451-4.754,40.41-49.918,115.287-52.295c74.877-2.377,72.5,41.598,110.533,45.164c38.033,3.565,42.787-15.451,89.139-13.074
			C1633.158,427.992,1658.117,462.46,1658.117,462.46z"/>
		<path style="fill:#FFFFFF;" d="M243.342,874.367c0.916,1.269-188.687,0-188.687,0s9.491-9.871,23.159-10.63
			c13.667-0.759,19.742-0.38,19.742-0.38s22.02-16.705,44.799-17.464c22.779-0.759,41.382,20.122,52.392,20.881
			c11.01,0.759,12.529-4.556,24.298-4.556C230.813,862.218,238.406,867.533,243.342,874.367z"/>
		<path style="fill:#FFFFFF;" d="M1132.445,306.465c1.437,1.989-295.78,0-295.78,0s14.878-15.473,36.303-16.664
			c21.425-1.19,30.947-0.595,30.947-0.595s34.518-26.186,70.225-27.376c35.708-1.19,64.869,31.542,82.128,32.732
			c17.259,1.19,19.639-7.142,38.088-7.142C1112.806,287.421,1124.708,295.752,1132.445,306.465z"/>
	</g>
	<g>
		<g>
			<path style="fill:#A8C1CC;" d="M220.496,981.728c5.068,2.172,43.436-44.16,49.227-40.54c5.792,3.62-18.822,77.461-35.473,89.044
				c-16.65,11.583-54.295,11.583-53.571,17.374c0.724,5.792,31.853,5.792,32.577,14.479c0.242,2.905-4.227,9.865-11.373,17.916
				H1.513c11.655-33.5,37.792-64.646,43.792-62.799c9.411,2.896,1.448,35.472,9.411,33.301c7.963-2.172,6.515-22.442,13.031-42.712
				s55.743-48.503,64.43-44.16c4.815,2.408,6.07,8.373,6.233,13.213c1.057,11.028-0.988,28.521,3.902,29.499
				c7.239,1.448,10.859-33.301,38.368-47.779c27.509-14.479,43.436-14.479,46.332-10.859
				C229.907,951.323,215.428,979.556,220.496,981.728z"/>
			<path style="fill:#7093A0;" d="M98.501,1013.011c-2.645,8.732-6.395,16.999-10.496,25.136
				c-7.214,14.313-15.355,28.167-24.396,41.403c-0.103,0.15-0.208,0.3-0.311,0.45h-5.165c5.837-8.389,11.273-17.087,16.345-25.898
				c3.952-6.866,7.682-13.861,11.179-20.97c3.474-7.06,6.841-14.155,10.556-21.091C96.977,1010.614,98.964,1011.483,98.501,1013.011
				z"/>
			<path style="fill:#7093A0;" d="M213.733,1001.647c7.923-6.635,15.864-13.454,22.802-21.132c0.757-0.837,2.093,0.162,1.4,1.081
				c-1.53,2.03-3.085,4.044-4.682,6.023c-5.79,7.179-12.357,13.611-19.372,19.546c1.545-0.622,3.104-1.208,4.671-1.766
				c2.979-1.062,6.008-1.998,9.052-2.854c1.589-0.447,3.192-0.87,4.816-1.17c1.453-0.268,3.165-0.686,4.576-0.089
				c0.685,0.29,1.032,1.29,0.493,1.886c-1.04,1.152-2.67,1.527-4.108,1.977c-1.472,0.461-2.963,0.858-4.449,1.269
				c-2.982,0.824-5.93,1.754-8.865,2.733c-3.005,1.003-5.975,2.099-8.951,3.185c-1.384,0.505-2.762,1.02-4.151,1.513
				c-0.873,0.31-1.743,0.658-2.633,0.922c-6.032,4.55-12.268,8.842-18.531,13.005c-17.767,11.81-36.021,22.949-54.416,33.751
				c-9.15,5.374-18.372,10.627-27.672,15.739c7.583-2.616,15.254-4.979,22.993-7.083c6.6-1.795,13.246-3.421,19.931-4.864
				c3.324-0.718,6.66-1.378,10.013-1.947c1.719-0.292,3.527-0.623,5.267-0.713c1.739-0.09,3.453-0.397,5.197-0.279
				c1.269,0.086,1.372,1.942,0.286,2.382c-0.956,0.387-1.909,0.605-2.915,0.824c-0.883,0.192-1.718,0.508-2.594,0.711
				c-1.874,0.435-3.77,0.826-5.655,1.207c-3.77,0.763-7.539,1.546-11.295,2.376c-12.411,2.742-24.656,6.174-36.737,10.12h-19.48
				c15.798-8.318,31.353-17.094,46.7-26.216c10.314-6.131,20.609-12.343,30.781-18.741c2.004-2.898,3.221-6.152,4.548-9.429
				c1.79-4.424,3.654-8.823,5.49-13.228c3.654-8.771,6.847-18.027,11.924-26.097c0.583-0.927,2.137-0.208,1.934,0.821
				c-0.964,4.876-2.675,9.588-4.492,14.204c-1.805,4.585-3.695,9.146-5.633,13.677c-1.938,4.531-3.839,9.088-5.915,13.558
				c-0.317,0.683-0.637,1.4-0.976,2.122c5.354-3.438,10.672-6.93,15.925-10.51C197.519,1014.365,205.839,1008.258,213.733,1001.647z
				"/>
		</g>
		<g>
			<path style="fill:#A8C1CC;" d="M779.442,963.893c-6.344,13.839-27.072,52.611-78.284,101.644
				c-5.224,5.001-10.657,9.816-16.224,14.463H558.201c11.902-11.038,27.6-22.719,48.686-34.555
				c47.181-26.483,146.074-70.433,170.251-84.117c2.174-1.241,3.752-2.226,4.629-2.924
				C781.768,958.404,781.088,960.32,779.442,963.893z"/>
			<path style="fill:#7093A0;" d="M779.442,963.893c-13.981,16.88-29.233,32.595-45.429,47.406
				c-18.772,17.167-38.853,32.955-59.57,47.713c-10.177,7.251-20.54,14.229-31.046,20.988h-10.252
				c15.443-9.704,30.616-19.845,45.391-30.543c20.394-14.771,39.981-30.63,58.562-47.633c9.25-8.474,18.224-17.26,26.886-26.33
				c4.459-4.659,8.814-9.398,13.153-14.166c2.174-1.241,3.752-2.226,4.629-2.924C781.768,958.404,781.088,960.32,779.442,963.893z"
				/>
		</g>
		<g>
			<path style="fill:#A8C1CC;" d="M275.344,1080h-13.601c0.18-22.905,3.074-53.488,3.074-53.488S273.497,1050.338,275.344,1080z"/>
			<path style="fill:#A8C1CC;" d="M328.954,1053.682c0.518,8.941-0.194,17.919-1.495,26.318h-15.401
				c-0.149-1.611-0.303-3.252-0.463-4.936c-2.735-28.813,6.448-75.637,6.448-75.637S326.996,1019.849,328.954,1053.682z"/>
			<path style="fill:#A8C1CC;" d="M380.665,1024.708c0.969,26.02-6.604,46.558-10.501,55.292h-2.179
				c-0.014-8.601-0.478-28.533-3.898-52.65c-4.59-32.365-0.286-68.472-0.286-68.472S379.368,989.874,380.665,1024.708z"/>
			<path style="fill:#A8C1CC;" d="M383.571,1073.666c0,0,36.078-4.347,68.331-11.778c32.253-7.431,49.381-13.915,49.381-13.915
				s-34.849-3.029-62.905,4.081C410.322,1059.163,383.571,1073.666,383.571,1073.666z"/>
			<path style="fill:#A8C1CC;" d="M409.681,1043.909c0,0,14.264-35.604,14.725-65.401c0.461-29.797-9.49-57.741-9.49-57.741
				s-6.704,15.817-6.344,53.572C408.932,1012.094,409.681,1043.909,409.681,1043.909z"/>
			<path style="fill:#A8C1CC;" d="M422.113,1033.986c0,0,9.684,2.424,42.842-9.72c33.158-12.144,62.395-25.888,62.395-25.888
				s-30.878-2.172-55.19,6.972C447.849,1014.495,422.113,1033.986,422.113,1033.986z"/>
			<path style="fill:#A8C1CC;" d="M447.368,1001.339c0,0,23.652-15.004,39.883-44.215c16.231-29.211,27.318-73.226,27.318-73.226
				s-17.646,12.117-37.736,43.312C456.744,958.406,447.368,1001.339,447.368,1001.339z"/>
			<path style="fill:#7093A0;" d="M481.886,947.268c-4.231,10.521-10.205,20.253-16.247,29.821
				c-6.156,9.749-12.729,19.248-19.636,28.479c-13.698,18.31-28.698,35.631-44.883,51.788c-7.846,7.833-15.979,15.375-24.349,22.644
				h-5.603c7.217-6.157,14.296-12.478,21.135-19.052c16.375-15.739,31.63-32.644,45.585-50.564
				c6.994-8.982,13.664-18.221,19.986-27.688c6.312-9.453,12.141-19.194,18.097-28.869c1.484-2.41,3.096-4.722,4.707-7.047
				C481.066,946.222,482.185,946.525,481.886,947.268z"/>
		</g>
	</g>
	<g>
		<g>
			<path style="fill:#A8C1CC;" d="M1920,271.877c-1.807,6.829-2.846,15.268-5.427,15.591c-4.304,0.538-4.304-27.438-12.912-39.812
				c-8.608-12.374-63.485-30.667-66.175-26.363c-2.69,4.304,31.742,32.818,30.128,36.584c-1.614,3.766-22.596-6.994-25.286-4.842
				c-2.69,2.152-2.69,13.988,8.07,34.432c10.76,20.444,36.584,23.134,35.508,28.514c-0.727,3.634-13.727,2.114-21.923,2.9
				c-3.597,0.121-8.03,1.054-9.82,4.633c-3.228,6.456,17.754,43.04,32.818,47.882c15.064,4.842,30.128,3.766,31.742,9.684
				c1.614,5.918-22.596,0-24.748,6.994c-1.016,3.301,11.406,14.808,28.023,24.079V271.877z"/>
			<path style="fill:#7093A0;" d="M1898.23,294.844c2.435,0.985,4.854,1.891,7.007,3.379c4.755,7.56,9.371,15.21,13.928,22.876
				c0.282,0.474,0.555,0.953,0.835,1.427v-6.713c-6.491-10.859-13.164-21.623-20.163-32.152c-3.094-4.654-6.284-9.288-9.665-13.771
				c-0.196-0.661-0.454-1.308-0.685-1.957c-0.366-1.032-0.749-2.056-1.125-3.085c-0.807-2.212-1.622-4.419-2.367-6.652
				c-0.728-2.181-1.419-4.371-2.031-6.588c-0.305-1.105-0.6-2.213-0.943-3.307c-0.335-1.068-0.613-2.28-1.47-3.053
				c-0.443-0.4-1.187-0.143-1.402,0.367c-0.443,1.049-0.133,2.321,0.066,3.401c0.223,1.207,0.537,2.398,0.87,3.579
				c0.636,2.262,1.332,4.514,2.121,6.727c0.415,1.164,0.851,2.323,1.313,3.471c-4.411-5.213-9.191-10.094-14.526-14.396
				c-1.471-1.186-2.967-2.342-4.476-3.479c-0.683-0.515-1.426,0.478-0.804,1.04c5.706,5.156,10.773,11.058,15.705,16.946
				c4.913,5.867,9.452,12.05,13.759,18.372c2.66,3.904,5.255,7.855,7.811,11.835c-0.536-0.252-1.069-0.49-1.577-0.725
				c-3.322-1.543-6.709-2.956-10.076-4.396c-3.367-1.44-6.757-2.845-10.165-4.186c-3.43-1.35-6.932-2.622-10.556-3.338
				c-0.764-0.151-1.299,1.004-0.61,1.437c5.997,3.773,12.876,6.146,19.394,8.862C1891.673,292.128,1894.942,293.513,1898.23,294.844
				z"/>
			<path style="fill:#7093A0;" d="M1920,363.067c-4.099-2.339-8.242-4.602-12.456-6.726c-6.047-3.048-12.192-5.835-18.681-7.8
				c-1.135-0.344-1.781,1.133-0.722,1.7c5.155,2.761,10.427,5.264,15.675,7.845c5.283,2.599,10.482,5.371,15.585,8.308
				c0.201,0.116,0.399,0.239,0.599,0.355V363.067z"/>
		</g>
		<g>
			<path style="fill:#A8C1CC;" d="M1920,610.408c-19.666,0.41-33.549,1.742-46.062,1.003c-16.295-0.962-31.989-9.84-31.989-9.84
				s39.898,43.375,78.051,46.541V610.408z"/>
			<path style="fill:#A8C1CC;" d="M1920,694.772c-10.301,3.577-18.842,5.391-21.014,4.954c-1.923-0.387,6.604,4.81,21.014,7.885
				V694.772z"/>
			<path style="fill:#A8C1CC;" d="M1920,560.873c-7.641-2.794-17.144-3.949-28.327-1.319c-22.961,5.401-45.69-8.042-45.69-8.042
				c19.803,21.388,44.909,20.148,64.888,18.04c3.429-0.362,6.444-0.494,9.129-0.485V560.873z"/>
			<path style="fill:#A8C1CC;" d="M1920,505.63c-1.236-5.109-2.784-10.512-4.768-16.15c-11.33-32.193-31.119-52.418-54.967-62.358
				c0,0,10.977,22.428,27.32,46.184c12.757,18.545,27.379,50.388,32.415,64.142V505.63z"/>
			<path style="fill:#A8C1CC;" d="M1904.735,524.734c0,0-5.257-11.333-37.16-14.196c-31.903-2.863-52.004,8.085-62.289,4.025
				c0,0,25.798,17.127,54.169,16.544C1887.826,530.525,1904.735,524.734,1904.735,524.734z"/>
			<path style="fill:#A8C1CC;" d="M1866.826,487.52c0,0-29.315-19.41-44.734-43.643c-15.419-24.233-29.321-38.716-29.321-38.716
				S1871.299,454.201,1866.826,487.52z"/>
			<path style="fill:#A8C1CC;" d="M1842.963,476.416c0,0-25.368,17.759-49.498,3.868c-24.13-13.891-38.104-34.188-62.3-34.587
				C1731.165,445.697,1782.21,416.456,1842.963,476.416z"/>
			<path style="fill:#7093A0;" d="M1907.003,499.964c2.062,4.372,3.854,8.872,5.496,13.417c2.736,7.573,4.977,15.311,7.5,22.954
				v-8.6c-2.88-9.357-5.816-18.741-9.936-27.641c-1.15-2.484-2.365-4.947-3.737-7.317c-1.419-2.451-3.002-4.685-4.847-6.832
				c-0.685-0.797-1.874-0.026-1.363,0.914C1902.47,491.188,1904.901,495.506,1907.003,499.964z"/>
			<path style="fill:#7093A0;" d="M1905.79,527.606c0.027,0.016,0.053,0.032,0.08,0.048c4.974,6.077,9.622,12.411,14.13,18.852
				v-6.476c-5.191-7.208-10.61-14.246-16.514-20.918c-8.152-9.215-17.232-17.537-27.028-24.919c-0.081-0.094-0.16-0.188-0.242-0.282
				c-1.44-1.646-2.95-3.234-4.449-4.826c-2.947-3.132-5.975-6.185-8.996-9.246c-6.073-6.154-12.148-12.307-18.176-18.506
				c-1.651-1.698-3.282-3.426-5.02-5.037c-1.821-1.687-3.67-3.311-5.583-4.897c-0.663-0.549-1.722,0.306-1.169,1.036
				c1.321,1.743,2.651,3.471,4.099,5.107c1.432,1.618,2.878,3.213,4.38,4.768c3.023,3.129,6.066,6.24,9.115,9.344
				c4.74,4.826,9.469,9.698,14.351,14.394c-5.28-3.393-10.722-6.541-16.314-9.415c-20.438-10.507-42.49-17.771-65.233-21.079
				c-2.778-0.404-5.528-0.7-8.332-0.866c-0.465-0.027-0.609,0.613-0.134,0.728c11.206,2.707,22.417,5.223,33.459,8.585
				c11.029,3.358,21.827,7.531,32.216,12.532c20.64,9.935,39.676,23.177,55.488,39.806c1.794,1.887,3.532,3.82,5.243,5.773
				c-1.768-0.681-3.599-1.204-5.443-1.636c-6.411-1.499-13.177-1.919-19.74-2.116c-4.182-0.125-8.415-0.197-12.536,0.567
				c-0.899,0.167-1.129,1.534-0.092,1.704c3.545,0.583,7.156,0.702,10.745,0.884c3.51,0.178,7.021,0.386,10.523,0.677
				c5.768,0.479,11.547,1.273,16.972,3.375C1903.051,526.133,1904.436,526.825,1905.79,527.606z"/>
			<path style="fill:#7093A0;" d="M1920,563.971c-4.238-0.764-8.54-1.244-12.797-1.414c-1.934-0.078-3.869-0.108-5.804-0.029
				c-1.018,0.042-2.027,0.19-3.043,0.276c-0.975,0.082-1.995,0.184-2.918,0.525c-0.747,0.275-0.63,1.309,0.111,1.49
				c1.58,0.386,3.344,0.263,4.963,0.379c1.665,0.119,3.341,0.12,5.008,0.209c3.356,0.179,6.718,0.489,10.047,0.949
				c1.467,0.203,2.95,0.427,4.433,0.684V563.971z"/>
		</g>
	</g>
	<g>
		<polygon style="fill:#F9AA0D;" points="1123.013,643.581 1106.266,639.153 1102.634,621.875 1099.001,639.153 1082.254,643.581 
			1099.001,648.009 1102.634,665.287 1106.266,648.009 		"/>
		<polygon style="fill:#F9AA0D;" points="1796.646,622.929 1788.587,620.798 1786.839,612.483 1785.091,620.798 1777.031,622.929 
			1785.091,625.059 1786.839,633.374 1788.587,625.059 		"/>
		<polygon style="fill:#F9AA0D;" points="1061.884,686.712 1053.824,684.581 1052.076,676.266 1050.329,684.581 1042.269,686.712 
			1050.329,688.843 1052.076,697.157 1053.824,688.843 		"/>
		<polygon style="fill:#F9AA0D;" points="1767.184,579.074 1750.353,574.624 1746.703,557.26 1743.052,574.624 1726.222,579.074 
			1743.052,583.524 1746.703,600.888 1750.353,583.524 		"/>
	</g>
	<g>
		<g>
			<g>
				<g>
					<g>
						<path style="fill:#C45F05;" d="M1822.928,116.799h-320.321c-11.814,0-21.48-12.688-21.48-28.195l0,0
							c0-15.507,9.666-28.195,21.48-28.195h320.321c11.814,0,21.48,12.688,21.48,28.195v0
							C1844.408,104.112,1834.742,116.799,1822.928,116.799z"/>
					</g>
				</g>
			</g>
			<g>
				<path style="fill:#FFFFFF;" d="M1821.736,101.101l-7.515-8.086c1.277-2.187,2.018-4.772,2.018-7.546
					c0-7.849-5.914-14.211-13.208-14.211c-7.295,0-13.208,6.362-13.208,14.211c0,7.849,5.913,14.21,13.208,14.21
					c2.806,0,5.405-0.944,7.544-2.548l7.425,7.99c0.516,0.555,1.192,0.831,1.868,0.831c0.676,0,1.352-0.276,1.869-0.831
					C1822.768,104.01,1822.768,102.211,1821.736,101.101z M1803.031,95.075c-4.93,0-8.928-4.301-8.928-9.606
					c0-5.305,3.997-9.606,8.928-9.606c4.931,0,8.928,4.301,8.928,9.606C1811.959,90.774,1807.962,95.075,1803.031,95.075z"/>
			</g>
		</g>
	</g>
	<g>
		<g>
			<g>
				<path style="fill:#F9AA0D;" d="M554.12,804.826H360.219c-22.401,0-40.561-18.16-40.561-40.561l0,0
					c0-22.401,18.16-40.561,40.561-40.561H554.12c22.401,0,40.561,18.16,40.561,40.561l0,0
					C594.681,786.666,576.521,804.826,554.12,804.826z"/>
			</g>
		</g>
	</g>
</g>
<g id="TEXTS">
	<g>
		<rect x="62.333" y="550.926" style="fill:none;" width="841.59" height="147.821"/>
		<text transform="matrix(1 0 0 1 78.9009 576.3392)"><tspan x="0" y="0" style="font-family:'Montserrat-Light'; font-size:34.2513px;">Lorem ipsum dolor sit amet, consectetuer adip</tspan><tspan x="795.404" y="0" style="font-family:'Montserrat-Light'; font-size:34.2513px;">-</tspan><tspan x="-13.785" y="41.102" style="font-family:'Montserrat-Light'; font-size:34.2513px;">iscing elit, sed diam nonummy nibh euismod tin</tspan><tspan x="809.188" y="41.102" style="font-family:'Montserrat-Light'; font-size:34.2513px;">-</tspan><tspan x="-5" y="82.203" style="font-family:'Montserrat-Light'; font-size:34.2513px;">cidunt ut laoreet dolore magna aliquam erat vo</tspan><tspan x="800.404" y="82.203" style="font-family:'Montserrat-Light'; font-size:34.2513px;">-</tspan></text>
	</g>
	<g>
		<text transform="matrix(1 0 0 1 237.4336 387.0238)"><tspan x="0" y="0" style="fill:#3C997A; font-family:'Montserrat-Bold'; font-size:88.1071px;">best car</tspan><tspan x="-122.511" y="105.729" style="fill:#3C997A; font-family:'Montserrat-Bold'; font-size:88.1071px;">rental deals</tspan></text>
	</g>
	<g>
		<text transform="matrix(1 0 0 1 59.2666 121.6553)" style="fill:#FFFFFF; font-family:'Montserrat-Bold'; font-size:81.4682px;">LOGO</text>
	</g>
	<g>
		<g>
			<g>
				<text transform="matrix(1 0 0 1 478.4814 106.5557)" style="font-family:'Montserrat-Bold'; font-size:49.1605px;">Home</text>
			</g>
			<text transform="matrix(1 0 0 1 701.374 106.5557)" style="font-family:'Montserrat-Light'; font-size:49.1605px;">About</text>
			<text transform="matrix(1 0 0 1 929.8135 106.5557)" style="font-family:'Montserrat-Light'; font-size:49.1605px;">Gallery</text>
			<text transform="matrix(1 0 0 1 1166.6475 106.5557)" style="font-family:'Montserrat-Light'; font-size:49.1605px;">Contact</text>
		</g>
	</g>
	<g>
		<g>
			<g>
				<g>
					
						<text transform="matrix(1 0 0 1 1635.9307 96.8721)" style="fill:#FFFFFF; font-family:'Montserrat-SemiBoldItalic'; font-size:30.3623px;">Search...</text>
				</g>
			</g>
		</g>
	</g>
	<g>
		<text transform="matrix(1 0 0 1 359.8262 782.1653)" style="font-family:'Montserrat-Bold'; font-size:43.0964px;">JOIN US</text>
	</g>
</g>
</svg>
