<svg width="600" height="600" viewBox="0 0 600 600" fill="none" xmlns="http://www.w3.org/2000/svg">
<path d="M54.5162 580.348C54.3527 582.439 58.7277 582.593 62.2373 582.593H202.625C209.117 582.593 209.995 581.695 209.995 580.348C209.995 578.822 207.538 578.253 202.976 578.253H62.2373C58.7277 578.253 54.6916 578.103 54.5162 580.348Z" fill="#362E53"/>
<path d="M89.3818 577.973C84.6245 514.449 54.4014 441.409 54.4014 441.409L57.7595 440.01C57.7595 440.01 86.5834 498.777 93.2996 578.253" fill="#79A3F3"/>
<path fill-rule="evenodd" clip-rule="evenodd" d="M129.214 370.236C131.196 370.236 132.83 369.782 134.274 368.938C134.661 368.712 135.008 368.423 135.33 368.154C136.193 367.433 136.878 366.861 137.669 368.066L149.736 383.855L150.482 376.393L140.299 363.18C138.915 361.095 138.714 360.253 138.714 357.735C138.714 356.973 138.759 356.171 138.806 355.325C138.859 354.382 138.915 353.384 138.915 352.326V300.089C138.915 292.253 132.945 289.641 125.856 289.641H111.677C103.841 289.641 97.498 291.88 97.498 302.327V351.953C97.498 363.52 99.7368 370.236 109.065 370.236H129.214ZM105.613 310.057C105.613 301.933 105.968 297.29 108.031 297.29C110.325 297.29 110.298 301.879 110.264 307.792C110.26 308.528 110.256 309.285 110.256 310.057V342.844C110.256 345.746 110.256 352.419 108.225 352.419C106.194 352.419 105.613 349.518 105.613 343.134V310.057Z" fill="#362E53"/>
<path d="M165.259 396.162H125.751C118.61 396.162 113.168 400.072 113.168 406.193C113.168 412.313 118.27 415.204 124.22 415.204C130.171 415.204 158.961 415.144 164.911 415.204C170.579 415.26 170.805 413.73 170.805 412.767C170.805 411.237 169.785 410.53 163.891 410.53H124.73C120.82 410.53 118.383 409.083 118.27 406.193C118.13 402.625 121.33 400.837 125.921 400.837H165.542C171.55 400.837 174.723 400.809 174.723 398.599C174.723 396.728 173.986 396.105 165.259 396.162H165.259Z" fill="#362E53"/>
<path d="M466.791 396.101C466.791 396.101 498.52 396.101 505.706 396.101C512.893 396.101 518.37 400.036 518.37 406.196C518.37 412.357 513.235 415.266 507.246 415.266C501.257 415.266 472.282 415.206 466.293 415.266C460.589 415.323 460.361 413.783 460.361 412.813C460.361 411.273 461.388 410.562 467.32 410.562C473.48 410.562 502.797 410.562 506.733 410.562C510.669 410.562 513.121 409.105 513.235 406.196C513.376 402.606 510.155 400.806 505.535 400.806C500.915 400.806 472.495 400.806 466.506 400.806C460.46 400.806 457.266 400.778 457.266 398.553C457.266 396.671 458.007 396.044 466.791 396.101Z" fill="#362E53"/>
<path d="M152.96 316.941C152.96 316.941 148.237 376.206 147.644 382.801C146.864 391.466 147.904 391.466 149.723 391.726C151.543 391.985 151.803 387.046 152.323 382.367C152.843 377.688 159.544 302.471 160.584 288.434C161.624 274.397 163.183 258.02 163.963 251.522C164.743 245.023 168.642 239.824 175.921 239.824H452.069C464.806 239.824 468.446 246.323 469.225 254.901C470.005 263.479 477.284 344.062 477.804 353.94C478.323 363.818 479.918 380.808 480.178 384.967C480.438 389.126 480.957 391.726 483.297 391.726C485.636 391.726 485.117 385.747 484.857 381.328C484.597 376.909 474.424 264.519 473.644 254.641C472.865 244.763 467.406 235.405 451.809 235.405C436.212 235.405 182.419 234.884 176.181 234.884C169.942 234.884 160.322 237.744 158.762 250.222C157.203 262.699 153.913 299.178 152.96 316.941Z" fill="#362E53"/>
<path d="M78.4681 514.635L77.8462 508.914C58.1328 495.046 65.5953 477.696 40.0362 469.674C20.56 463.561 6.04246 471.517 1.76336 475.929C-1.94031 479.748 0.76484 480.308 4.58937 481.427C8.01013 482.428 64.6625 500.27 78.4681 514.635Z" fill="#79A3F3"/>
<path fill-rule="evenodd" clip-rule="evenodd" d="M88.6768 478.596C98.3052 474.265 107.333 459.113 109.531 442.529C111.06 430.994 109.482 418.887 108.598 412.095C108.493 411.289 108.397 410.558 108.318 409.912C107.993 407.256 108.069 405.521 108.123 404.311C108.192 402.745 108.222 402.059 107.292 401.392C103.911 398.968 83.2333 411.698 75.8564 437.026C71.5025 451.974 74.1157 467.166 76.8692 475.258C78.2401 479.287 78.0271 481.056 77.3311 486.836C77.0258 489.371 76.6277 492.678 76.2295 497.285L79.5876 506.427C79.5876 506.427 80.707 495.047 81.6398 488.33C82.5726 481.614 83.7739 480.801 88.6768 478.596ZM92.7812 429.123C93.9869 425.982 95.5879 423.996 97.316 424.68C98.4445 425.126 97.805 427.098 96.8636 430.001C96.7856 430.241 96.7056 430.488 96.6244 430.74C95.1965 435.182 88.4864 457.013 87.4746 461.206L87.4738 461.21C86.0067 467.29 85.4446 469.62 83.737 469.425C82.5248 469.286 82.1311 467.571 83.4882 460.629C84.865 453.585 90.9414 433.916 92.7812 429.123Z" fill="#79A3F3"/>
<path fill-rule="evenodd" clip-rule="evenodd" d="M62.7967 399.527C56.7258 383.627 39.0347 370.975 31.2973 368.082C30.9521 367.953 30.6317 367.817 30.3312 367.689C28.2211 366.794 27.094 366.317 25.2976 371.542C25.2168 371.777 25.1251 372.039 25.0243 372.326C22.9235 378.315 16.9049 395.471 24.7379 415.944C32.6672 436.668 52.7223 446.727 58.6923 444.115C64.6623 441.503 70.6323 420.049 62.7967 399.527ZM39.8696 398.786C36.8473 391.51 34.6698 386.268 36.3767 385.395C37.4507 384.846 38.778 385.624 40.0359 388.14C41.2937 390.655 48.0627 405.682 49.4696 409.866C49.6977 410.544 49.9625 411.315 50.2501 412.153C52.7016 419.295 56.8188 431.288 54.1579 432.107C51.9228 432.794 50.4309 428.247 47.7874 420.19C46.9146 417.53 45.9162 414.487 44.7241 411.124C43.1531 406.691 41.4027 402.477 39.8696 398.786Z" fill="#79A3F3"/>
<path fill-rule="evenodd" clip-rule="evenodd" d="M188.727 324.342C177.16 324.342 171.377 319.398 172.496 305.312C172.534 304.837 172.576 304.309 172.621 303.734C173.216 296.215 174.441 280.744 175.481 271.731C175.538 271.237 175.593 270.737 175.649 270.231C176.685 260.808 177.905 249.717 195.257 249.717H438.907C454.952 249.717 456.817 256.433 457.937 266.881C459.056 277.328 460.548 292.253 461.668 306.059C462.787 319.864 459.056 324.342 446.37 324.342H188.727ZM431.817 292.44C417.813 296.62 381.072 304.753 370.065 306.805C326.837 314.865 315.755 309.468 303.795 303.642C299.021 301.317 294.106 298.924 286.952 297.29C274.314 294.406 256.44 299.522 240.213 304.168C223.382 308.986 208.323 313.296 202.719 307.645C190.685 295.508 224.135 268.582 230.423 263.709C237.886 257.926 244.509 255.127 245.815 257.553C246.557 258.932 244.133 260.564 240.036 263.324C238.257 264.522 236.162 265.932 233.875 267.627C227.548 272.313 199.734 296.171 206.823 303.634C209.982 306.959 222.365 303.732 237.238 299.857C255.739 295.036 278.092 289.211 291.336 293.746C298.511 296.202 303.611 298.514 307.956 300.484C321.65 306.692 327.841 309.499 367.826 302.701C380.65 300.521 424.454 290.313 431.538 288.242C437.601 286.47 440.679 286.003 441.052 287.682C441.47 289.562 438.297 290.508 432.45 292.251L431.817 292.44ZM392.533 262.36C391.984 260.642 387.603 262.201 383.253 263.749C382.563 263.995 381.874 264.24 381.201 264.472C379.241 265.147 374.694 266.8 369.313 268.756L369.311 268.757L369.31 268.757C361.198 271.706 351.189 275.344 345.282 277.365C337.539 280.013 330.4 282.87 326.029 284.619C324.591 285.194 323.453 285.65 322.692 285.938C319.615 287.105 318.329 287.943 318.834 289.212C319.342 290.487 322.053 289.781 324.121 288.939C325.209 288.497 329.386 287.09 334.106 285.501L334.107 285.501C339.546 283.669 345.708 281.595 348.695 280.472C351.577 279.389 358.857 276.689 366.026 274.03L366.031 274.029C372.743 271.539 379.358 269.086 382.174 268.03C383.471 267.544 384.668 267.116 385.753 266.729L385.753 266.729C390.497 265.034 393.092 264.108 392.533 262.36Z" fill="#79A3F3"/>
<path d="M264.542 323.493C264.15 325.649 268.479 326.263 272.854 326.263H435.578C443.015 326.263 446.369 326.117 446.369 323.638C446.369 321.16 439.515 321.889 436.307 321.889H272.562C267.605 321.889 264.834 321.889 264.542 323.493Z" fill="#362E53"/>
<path d="M462.04 513.333V518.177H175.479L173.802 513.333H462.04Z" fill="#362E53"/>
<path fill-rule="evenodd" clip-rule="evenodd" d="M496.554 475.025H178.466V438.891C178.466 430.495 174.174 426.576 167.459 426.576H124.361C118.392 426.576 112.889 431.076 113.542 441.875C113.902 447.825 113.916 481.695 113.831 513.318C115.115 511.706 116.828 509.537 118.688 507.182C123.669 500.878 129.707 493.235 131.387 491.333C131.663 491.02 131.934 490.715 132.199 490.419V479.935H466.144C466.144 479.935 488.812 479.469 494.035 479.469C498.885 479.469 502.523 480.866 502.523 485.346V504.561C502.523 504.914 502.528 505.267 502.533 505.617C502.589 509.529 502.641 513.142 495.622 513.142H462.04V518.738H495.435C502.896 518.738 507.934 517.246 507.934 505.492V484.167C507.934 479.129 505.603 475.025 496.554 475.025ZM132.199 498.362C126.618 505.142 117.583 516.223 115.597 518.677C115.513 518.781 115.429 518.884 115.345 518.989C114.839 519.615 114.324 520.252 113.809 520.858C113.727 546.688 113.591 569.296 113.542 571.35C113.354 579.185 117.646 579.931 122.869 579.931H169.883C176.598 579.931 178.466 576.201 178.466 570.231V513.268H132.199V498.362ZM131.452 436.063C131.452 438.723 136.418 439.078 140.142 439.078H163.49C169.786 439.078 171.737 438.28 171.737 436.063C171.737 434.289 168.811 433.846 164.111 433.846C162.625 433.846 157.6 433.824 152.503 433.802C147.259 433.78 141.939 433.757 140.32 433.757C137.127 433.757 131.452 433.757 131.452 436.063Z" fill="#362E53"/>
<path fill-rule="evenodd" clip-rule="evenodd" d="M108.317 534.638C103.123 535.321 98.8528 535.882 92.7712 542.247C90.0971 545.045 87.4231 548.776 87.4231 548.776L86.3037 542.62L91.2787 537.645C91.2787 537.645 97.1243 532.918 98.0571 525.456C98.99 517.993 102.41 497.005 117.646 484.226C133.424 470.991 149.306 468.607 151.041 470.233C151.975 471.11 151.886 472.717 151.688 476.269C151.571 478.39 151.414 481.205 151.414 484.972C151.414 498.23 147.123 512.397 133.691 523.093C121.343 532.925 114.231 533.86 108.317 534.638ZM131.387 491.333C135.471 486.709 138.245 483.955 139.745 485.34C140.943 486.446 138.957 490.32 136.298 493.426C133.64 496.532 118.264 515.382 115.597 518.677C115.514 518.781 115.43 518.884 115.346 518.989C112.747 522.204 109.922 525.7 107.987 523.85C106.355 522.29 108.883 519.298 111.098 516.676C111.419 516.297 111.732 515.925 112.026 515.567C113.078 514.284 115.692 510.976 118.689 507.182C123.67 500.878 129.708 493.235 131.387 491.333Z" fill="#79A3F3"/>
<path d="M213.726 340.666C184.623 340.666 176.694 365.852 175.481 377.698C174.455 387.727 174.887 405.245 190.686 416.783C207.29 428.91 209.187 446.851 210.182 453.816C211.818 465.27 213.073 470.513 209.684 470.855C205.584 471.269 206.171 465.476 204.212 453.816C202.647 444.5 201.04 430.122 187.048 420.981C173.173 411.916 167.187 391.82 169.511 375.087C171.377 361.654 178.466 335.162 214.846 335.162C240.246 335.162 295.961 335.061 323.612 335.008L417.826 335.162C454.205 335.162 461.295 361.654 463.16 375.087C465.484 391.82 459.498 411.916 445.623 420.981C431.631 430.122 430.025 444.5 428.46 453.816C426.501 465.476 427.088 471.269 422.987 470.855C419.598 470.513 420.853 465.27 422.49 453.816C423.485 446.851 425.381 428.91 441.985 416.783C457.784 405.245 458.217 387.727 457.19 377.698C455.978 365.852 448.049 340.666 418.945 340.666H213.726Z" fill="#362E53"/>
<path d="M266.921 369.568C264.293 369.568 264.293 373.44 264.293 377.312V458.701C264.293 461.051 263.879 465.476 266.921 465.476C269.963 465.476 269.41 460.498 269.41 458.009V377.174C269.41 373.025 270.101 369.568 266.921 369.568Z" fill="#362E53"/>
<path d="M281.053 369.568C278.425 369.568 278.425 373.44 278.425 377.312V458.701C278.425 461.051 278.01 465.476 281.053 465.476C284.095 465.476 283.542 460.498 283.542 458.009V377.174C283.542 373.025 284.233 369.568 281.053 369.568Z" fill="#362E53"/>
<path d="M295.184 369.568C292.557 369.568 292.557 373.44 292.557 377.312V458.701C292.557 461.051 292.142 465.476 295.184 465.476C298.226 465.476 297.673 460.498 297.673 458.009V377.174C297.673 373.025 298.365 369.568 295.184 369.568Z" fill="#362E53"/>
<path d="M309.316 369.568C306.689 369.568 306.689 373.44 306.689 377.312V458.701C306.689 461.051 306.274 465.476 309.316 465.476C312.358 465.476 311.805 460.498 311.805 458.009V377.174C311.805 373.025 312.497 369.568 309.316 369.568Z" fill="#362E53"/>
<path d="M323.448 369.568C320.821 369.568 320.821 373.44 320.821 377.312V458.701C320.821 461.051 320.406 465.476 323.448 465.476C326.49 465.476 325.937 460.498 325.937 458.009V377.174C325.937 373.025 326.628 369.568 323.448 369.568Z" fill="#362E53"/>
<path d="M337.58 369.568C334.953 369.568 334.953 373.44 334.953 377.312V458.701C334.953 461.051 334.538 465.476 337.58 465.476C340.622 465.476 340.069 460.498 340.069 458.009V377.174C340.069 373.025 340.76 369.568 337.58 369.568Z" fill="#362E53"/>
<path d="M351.713 369.568C349.085 369.568 349.085 373.44 349.085 377.312V458.701C349.085 461.051 348.671 465.476 351.713 465.476C354.755 465.476 354.202 460.498 354.202 458.009V377.174C354.202 373.025 354.893 369.568 351.713 369.568Z" fill="#362E53"/>
<path d="M365.844 369.568C363.216 369.568 363.216 373.44 363.216 377.312V458.701C363.216 461.051 362.801 465.476 365.844 465.476C368.886 465.476 368.333 460.498 368.333 458.009V377.174C368.333 373.025 369.024 369.568 365.844 369.568Z" fill="#362E53"/>
<path d="M88.9158 555.928C78.9658 547.47 51.6033 541.998 14.6639 542.868C9.6204 542.987 10.4663 537.955 17.7422 531.799C25.0182 525.642 41.4753 520.508 57.2002 524.803C79.4011 530.866 71.0058 543.552 88.5427 550.642L88.9158 555.928H88.9158Z" fill="#79A3F3"/>
<path d="M291.465 134.139C283.559 134.139 279.276 140.892 279.276 146.328C279.276 151.764 282.351 158.681 291.877 158.681C301.348 158.681 303.572 150.281 303.572 146.493C303.572 142.704 301.238 134.139 291.465 134.139Z" fill="#79A3F3"/>
<path d="M271.438 133.124C269.674 131.948 267.037 135.945 265.006 139.781C262.975 143.618 260.233 151.992 264.781 163.816C268.166 172.617 269.746 177.131 267.037 187.963L271.664 191.123C271.664 191.123 276.365 179.129 269.746 163.929C266.699 156.933 265.205 148.975 268.73 141.925C270.535 138.314 273.131 134.252 271.438 133.124V133.124Z" fill="#362E53"/>
<path d="M301.538 170.191C298.85 172.841 294.937 175.946 289.352 182.632C285.282 187.503 279.196 195.834 279.196 195.834L276.403 192.533C276.403 192.533 279.341 188.435 285.289 181.362C291.552 173.915 294.768 171.32 298.249 168.045C299.987 166.411 302.018 165.057 302.92 165.734C303.823 166.411 303.541 168.216 301.538 170.191Z" fill="#362E53"/>
<path d="M305.628 174.592C303.058 174.47 303.259 180.516 299.084 186.045C294.909 191.574 287.8 195.749 287.8 195.749L290.959 199.022C290.959 199.022 299.479 193.436 302.864 187.907C306.249 182.378 306.982 178.711 307.095 177.131C307.208 175.551 306.813 174.649 305.628 174.592Z" fill="#362E53"/>
<path d="M307.545 131.533C303.552 126.954 297.963 124.432 291.805 124.432C285.664 124.432 279.973 126.916 275.782 131.426C271.942 135.556 269.74 141.017 269.74 146.41C269.74 151.803 271.942 157.264 275.782 161.394C279.973 165.904 285.664 168.388 291.805 168.388C297.963 168.388 303.552 165.866 307.545 161.288C311.08 157.234 313.106 151.81 313.106 146.41C313.106 141.01 311.08 135.589 307.545 131.533ZM291.805 163.843C281.312 163.843 274.286 154.872 274.286 146.41C274.286 137.948 281.312 128.977 291.805 128.977C302.3 128.977 308.563 137.948 308.563 146.41C308.563 154.872 302.3 163.843 291.805 163.843Z" fill="#362E53"/>
<path d="M341.18 134.139C349.087 134.139 353.369 140.892 353.369 146.328C353.369 151.764 350.294 158.681 340.768 158.681C331.297 158.681 329.073 150.281 329.073 146.493C329.073 142.704 331.407 134.139 341.18 134.139Z" fill="#79A3F3"/>
<path d="M367.638 139.781C369.635 143.636 372.411 151.992 367.864 163.816C364.478 172.617 362.899 177.131 365.607 187.963L360.98 191.123C360.98 191.123 356.279 179.129 362.899 163.929C365.945 156.933 367.554 148.917 363.914 141.925C362.725 139.64 361.54 136.594 363.232 135.747C365.298 134.714 366.966 138.484 367.638 139.781V139.781Z" fill="#362E53"/>
<path d="M331.106 170.192C333.794 172.841 337.707 175.946 343.293 182.632C347.362 187.503 353.448 195.834 353.448 195.834L356.241 192.534C356.241 192.534 353.303 188.436 347.355 181.363C341.092 173.915 337.876 171.32 334.395 168.046C332.658 166.412 330.627 165.058 329.724 165.735C328.821 166.412 329.103 168.217 331.106 170.192Z" fill="#362E53"/>
<path fill-rule="evenodd" clip-rule="evenodd" d="M373.506 191.771C377.06 196.595 407.078 237.603 407.078 237.603C407.078 237.603 329.931 237.617 316.27 237.319C302.608 237.617 226.029 236.468 226.029 236.468C226.029 236.468 255.585 196.595 259.14 191.771C259.82 190.848 260.399 190.017 260.908 189.285C263.06 186.193 263.991 184.857 266.248 185.678C269.041 186.694 282.751 195.072 282.751 195.072C283.3 195.333 284.149 195.223 285.244 195.081C287.692 194.762 291.372 194.284 295.699 197.441C301.542 201.705 306.356 203.685 316.323 203.931C326.29 203.685 331.103 201.705 336.947 197.441C341.273 194.284 344.954 194.762 347.402 195.081C348.497 195.223 349.345 195.333 349.895 195.072C349.895 195.072 363.605 186.694 366.397 185.678C368.655 184.857 369.585 186.193 371.737 189.285C372.247 190.017 372.825 190.847 373.506 191.771ZM354.032 198.703C355.574 198.159 356.391 199.928 357.842 204.601C358.841 207.816 363.944 227.123 364.488 229.708C364.523 229.875 364.558 230.038 364.593 230.2C365.094 232.55 365.481 234.362 364.08 234.744C362.59 235.15 361.64 231.918 360.96 229.606L360.95 229.572C360.269 227.259 354.967 207.637 354.44 205.417C354.278 204.735 354.109 204.091 353.952 203.491C353.274 200.899 352.812 199.134 354.032 198.703ZM279.337 199.709C277.73 199.142 276.879 200.985 275.367 205.853C274.326 209.203 269.985 224.451 269.418 227.145C269.382 227.318 269.345 227.489 269.31 227.657C268.787 230.105 268.384 231.993 269.844 232.391C271.396 232.815 272.386 229.447 273.095 227.039L273.095 227.039L273.105 227.003C273.814 224.593 278.363 209.017 278.912 206.704C279.081 205.994 279.256 205.322 279.42 204.697L279.42 204.697C280.127 201.997 280.608 200.158 279.337 199.709Z" fill="#362E53"/>
<path d="M327.017 174.592C329.587 174.47 329.386 180.516 333.561 186.045C337.736 191.574 344.845 195.749 344.845 195.749L341.686 199.022C341.686 199.022 333.166 193.436 329.781 187.907C326.396 182.378 325.663 178.711 325.55 177.131C325.437 175.551 325.832 174.649 327.017 174.592Z" fill="#362E53"/>
<path d="M356.863 131.426C352.669 126.916 346.979 124.432 340.838 124.432C334.682 124.432 329.093 126.954 325.1 131.533C321.565 135.589 319.537 141.01 319.537 146.41C319.537 151.81 321.565 157.234 325.1 161.288C329.093 165.866 334.682 168.388 340.838 168.388C346.979 168.388 352.669 165.904 356.863 161.394C360.701 157.264 362.902 151.803 362.902 146.41C362.902 141.017 360.701 135.556 356.863 131.426ZM340.838 163.843C330.345 163.843 324.082 154.872 324.082 146.41C324.082 137.948 330.345 128.977 340.838 128.977C351.333 128.977 358.36 137.948 358.36 146.41C358.36 154.872 351.333 163.843 340.838 163.843Z" fill="#362E53"/>
<path fill-rule="evenodd" clip-rule="evenodd" d="M355.915 102.923C353.401 105.485 344.617 114.438 328.957 115.69C328.121 115.757 328.741 116.16 329.488 116.645C329.687 116.774 329.894 116.909 330.086 117.044C336.292 121.445 335.474 126.946 335.474 126.946L326.052 133.462C320.563 130.961 318.881 127.647 318.057 126.023C317.543 125.009 317.363 124.653 316.799 125.564C312.152 133.07 305.854 133.237 305.854 133.237L296.262 126.692C296.41 125.163 297.162 123.504 297.806 122.083C298.635 120.255 299.285 118.822 298.237 118.568C291.366 116.902 288.821 113.927 289.154 110.105C289.627 104.664 294.055 102.657 296.765 101.429C297.933 100.899 298.782 100.515 298.858 100.062C298.927 99.647 298.275 99.5713 297.324 99.461C295.174 99.2116 291.498 98.785 291.185 93.8561C290.916 89.6197 294.98 79.8264 309.747 75.9148C318.266 73.6581 327.293 75.6892 329.55 80.7669C331.071 84.189 329.209 87.7648 328.04 90.0092C327.475 91.095 327.072 91.8692 327.293 92.1636C327.486 92.4204 328.233 92.3735 329.254 92.3094C331.822 92.1483 336.12 91.8787 337.674 96.0565C340.286 103.08 330.904 110.105 327.97 111.346C325.036 112.587 334.881 112.644 345.234 105.93C349.779 102.982 351.896 101.082 353.697 99.1595C356.208 96.4796 357.492 95.61 358.662 96.2257C360.27 97.072 358.916 99.8648 355.954 102.883L355.915 102.923ZM312.708 84.2087C311.648 82.7549 308.505 84.2087 305.741 87.0297C302.75 90.0818 300.945 93.2217 302.186 94.3078C303.326 95.3045 305.017 93.4133 307.274 90.8884C307.527 90.6058 307.787 90.3152 308.054 90.0199C308.948 89.0311 309.88 88.2025 310.685 87.4866L310.685 87.4866C312.269 86.0785 313.363 85.1064 312.708 84.2087ZM306.587 104.406C305.449 103.4 303.766 104.576 301.961 106.607C300.155 108.638 299.366 110.5 300.663 111.402C301.961 112.305 303.597 110.556 304.725 109.259C304.809 109.163 304.898 109.061 304.992 108.956L304.992 108.955C306.16 107.632 307.946 105.608 306.587 104.406Z" fill="#362E53"/>
<path d="M332.512 165.367C332.512 165.367 327.016 174.761 316.263 174.761C305.511 174.761 300.663 163.562 301.792 163.929L304.331 162.067C304.331 162.067 308.393 170.699 316.856 170.699C325.318 170.699 329.888 162.067 329.888 162.067L332.512 165.367Z" fill="#362E53"/>
<path d="M316.677 132.47C312.147 132.47 309.386 135.379 309.698 139.452C310.099 144.675 315.011 145.707 317.199 145.707C319.384 145.707 323.305 143.792 323.448 139.452C323.552 136.251 321.832 132.47 316.677 132.47ZM316.711 142.137C314.438 142.137 313.595 140.515 313.498 139.378C313.398 138.242 314.081 136.002 316.678 136.002C319.405 136.002 319.794 138.274 319.794 139.15C319.794 140.025 319.34 142.137 316.711 142.137V142.137Z" fill="#362E53"/>
<path fill-rule="evenodd" clip-rule="evenodd" d="M518.757 570.231V438.891C518.757 430.495 514.468 426.576 507.749 426.576H464.655C458.685 426.576 453.182 431.076 453.835 441.875C454.043 445.295 454.135 457.929 454.158 474.058C454.161 475.971 454.163 477.932 454.163 479.935H466.144C466.144 479.935 488.812 479.469 494.035 479.469C498.885 479.469 502.523 480.866 502.523 485.346V504.561C502.523 504.914 502.528 505.267 502.533 505.617C502.589 509.529 502.641 513.142 495.623 513.142H462.04V513.333H454.124L454.124 513.385C454.118 515.179 454.113 516.966 454.11 518.738C454.029 545.44 453.886 569.241 453.835 571.35C453.647 579.185 457.939 579.931 463.162 579.931H510.176C516.891 579.931 518.757 576.201 518.757 570.231ZM495.754 437.752C492.637 437.87 489.2 438 489.2 435.625C489.2 433.909 491.343 433.223 496.644 433.3C507.979 433.466 509.897 438.115 510.404 443.705C510.836 448.467 511.194 456.656 511.081 458.649C511.059 459.041 511.071 459.548 511.086 460.113C511.143 462.421 511.225 465.688 509.051 465.955C506.348 466.286 506.231 462.975 506.119 459.77L506.118 459.756C506.087 458.875 506.065 457.862 506.039 456.707C505.971 453.65 505.881 449.597 505.554 444.37C505.16 438.06 499.689 437.617 496.419 437.728C496.2 437.735 495.978 437.744 495.754 437.752Z" fill="#362E53"/>
<path d="M223.377 394.227C225.683 393.158 228.969 389.513 230.575 384.553C233.542 375.391 227.89 366.858 218.954 364.525C211.553 362.592 201.261 365.673 198.52 376.622C195.688 387.933 204.434 394.061 207.751 395.313C210.269 396.264 211.597 395.571 212.065 394.214C212.533 392.856 211.855 391.469 210.121 390.586C203.465 387.197 203.066 381.511 204.108 377.349C205.468 371.919 210.868 368.271 217.504 369.933C221.183 370.854 226.702 374.416 225.464 381.798C224.82 385.633 222.535 388.45 221.237 389.716C219.005 391.894 219.565 393.262 219.916 393.713C220.474 394.429 221.473 395.11 223.377 394.227Z" fill="#362E53"/>
<path fill-rule="evenodd" clip-rule="evenodd" d="M535.8 479.933C533.362 489.171 529.929 502.177 524.446 536.277C524.01 538.987 523.047 541.127 521.274 540.568C519.625 540.047 519.914 538.315 520.595 534.237C520.646 533.932 520.699 533.614 520.753 533.283C524.718 509.212 529.776 489.315 533.061 476.389C533.665 474.013 534.209 471.872 534.676 469.985C535.304 467.444 535.809 465.568 536.197 464.128C537.26 460.185 537.444 459.502 536.852 457.361C532.558 441.834 532.025 432.807 534.8 423.593C540.241 405.528 559.177 395.814 561.665 396.355C563.81 396.821 571.366 412.772 566.143 430.309C561.626 445.473 549.001 454.214 544.234 457.514C543.489 458.03 542.935 458.413 542.636 458.667C540.441 460.523 539.868 463.012 538.174 470.359C537.996 471.132 537.805 471.959 537.598 472.846C537.059 475.163 536.467 477.407 535.8 479.933ZM547.739 428.55C555.845 407.824 557.53 406.496 558.906 406.936C560.497 407.445 559.134 410.923 554.923 421.674C553.984 424.073 552.903 426.833 551.681 430.002C550.56 432.911 549.663 435.425 548.91 437.538C546.826 443.378 545.838 446.15 544.238 445.693C542.167 445.102 543.355 439.759 547.739 428.55Z" fill="#362E53"/>
<path d="M239.581 367.479C237.243 362.739 232.243 356.536 221.71 353.899C215.22 352.274 208.141 352.887 202.284 355.582C197.026 358.001 189.522 363.126 187.032 374.61C183.409 391.318 194.189 403.517 206.871 407.031C211.065 408.194 214.102 408.142 216.309 408.14C220.474 408.136 224.518 406.757 228.175 404.694C234.689 401.013 239.63 394.746 241.588 386.926C243.287 380.142 242.399 373.191 239.581 367.479ZM215.745 403.14C214.178 403.06 211.337 403.005 208.326 402.237C199.12 399.885 189.006 389.359 192.164 375.895C196.125 359.004 211.084 356.4 220.494 358.756C235.514 362.517 239.069 375.205 236.456 385.641C233.641 396.884 224.894 402.519 215.745 403.14Z" fill="#362E53"/>
<path d="M441.068 367.479C438.73 362.739 433.731 356.536 423.197 353.899C416.708 352.274 409.628 352.887 403.772 355.582C398.513 358.001 391.009 363.126 388.519 374.61C384.897 391.318 395.676 403.517 408.358 407.031C412.552 408.194 415.59 408.142 417.797 408.14C421.962 408.136 426.005 406.757 429.662 404.694C436.177 401.013 441.117 394.746 443.076 386.926C444.774 380.142 443.886 373.191 441.068 367.479ZM417.233 403.14C415.665 403.06 412.825 403.005 409.813 402.237C400.608 399.885 390.493 389.359 393.651 375.895C397.613 359.004 412.572 356.4 421.981 358.756C437.002 362.517 440.557 375.205 437.944 385.641C435.128 396.884 426.381 402.519 417.233 403.14Z" fill="#362E53"/>
<path d="M403.425 370.858C410.223 361.848 420.63 362.45 426.841 366.913C434.341 372.303 436.549 382.297 430.487 389.78C427.206 393.831 422.829 396.052 420.294 396.221C418.199 396.36 417.511 395.366 417.248 394.497C417.083 393.95 417.052 392.472 419.918 391.242C421.584 390.527 424.729 388.719 426.708 385.372C430.517 378.928 426.647 373.621 423.544 371.439C417.949 367.503 411.575 368.95 408.379 373.544C406.404 376.383 404.706 376.576 403.493 376.014C401.375 375.033 402.173 372.517 403.425 370.858Z" fill="#362E53"/>
<path d="M550.471 486.371C551.869 474.49 554.612 467.119 564.556 457.174C568.847 452.883 579.754 446.129 593.474 445.794C597.298 445.701 597.671 445.608 597.485 449.805C597.298 454.003 595.339 467.995 586.944 478.629C578.068 489.871 567.656 492.974 558.4 493.274C556.4 493.339 553.197 493.12 549.445 496.446C545.34 500.084 531.566 512.894 524.477 527.073L525.969 516.252C525.969 516.252 529.819 509.798 545.247 495.233C549.134 491.564 549.911 491.129 550.471 486.371Z" fill="#362E53"/>
<path d="M530.751 546.156C537.932 540.804 544.168 537.212 548.65 534.804C556.885 530.379 562.624 535.522 577.147 533.886C591.585 532.259 597.457 517.882 599.052 513.551C600.647 509.22 600.491 508.922 596.544 508.119C592.419 507.28 580.756 506.252 573.326 508.514C557.414 513.36 556.17 526.129 549.563 529.836C544.371 532.749 535.194 537.841 529.38 542.479C527.106 544.294 526.458 545.009 526.521 546.232C526.601 547.805 527.859 548.311 530.751 546.156Z" fill="#362E53"/>
<path d="M401.594 553.44C396.949 529.078 389.921 507.591 387.136 499.897C383.218 489.076 380.077 484.039 381.445 483.293C383.565 482.137 390.428 489.745 394.971 497.099C400.35 505.805 405.944 517.849 412.024 534.572C412.793 536.687 413.068 537.909 413.581 537.769C414.257 537.585 414.092 535.83 414.118 534.782C414.356 525.131 414.135 507.216 413.441 495.42C412.601 481.147 410.351 470.748 413.441 469.954C416.706 469.114 424.979 488.341 426.78 508.292C427.588 517.247 427.837 529.934 427.837 534.411C427.837 538.889 427.955 540.077 429.081 539.635C430.148 539.216 433.558 525.58 441.394 509.785C449.23 493.989 455.549 486.503 458.185 483.79C461.387 480.495 463.533 481.894 462.693 484.599C461.854 487.304 444.018 527.351 442.358 549.802C441.767 557.794 443.757 554.684 445.747 550.082C447.737 545.48 459.802 524.834 475.597 513.765C480.075 510.531 485.174 507.173 487.04 508.541C488.905 509.909 466.502 529.326 456.443 554.809C452.712 564.261 454.785 563.833 456.817 562.769C459.428 561.4 480.37 550.173 497.052 551.761C500.97 552.135 502.089 553.005 497.052 554.622C492.015 556.239 461.418 564.945 454.578 580.679H389.468C381.259 561.276 344.288 556.437 344.008 553.814C343.749 551.379 362.782 553.27 375.351 557.669C380.326 559.41 386.057 561.988 387.695 562.675C388.659 563.08 391.147 564.51 390.027 560.53C381.529 530.314 355.27 511.024 356.322 508.79C357.565 506.147 376.346 520.854 384.803 530.929C392.66 540.287 397.731 548.79 400.227 554.723C401.164 556.95 402.153 556.371 401.594 553.44H401.594Z" fill="#79A3F3"/>
<path fill-rule="evenodd" clip-rule="evenodd" d="M503.458 370.236C501.475 370.236 499.841 369.782 498.397 368.938C498.01 368.712 497.664 368.423 497.342 368.154C496.478 367.433 495.793 366.861 495.002 368.066L482.936 383.855L482.189 376.393L492.372 363.18C493.756 361.095 493.957 360.253 493.957 357.735C493.957 356.973 493.912 356.171 493.865 355.325C493.812 354.382 493.756 353.384 493.756 352.326V300.089C493.756 292.253 499.726 289.641 506.816 289.641H520.994C528.83 289.641 535.173 291.88 535.173 302.327V351.953C535.173 363.52 532.934 370.236 523.606 370.236H503.458ZM513.802 302.684C509.956 302.718 507.109 302.743 507.381 300.153C507.577 298.298 511.626 298.498 516.224 298.726C516.868 298.757 517.523 298.79 518.179 298.817C526.855 299.179 527.085 304.606 526.973 309.058C526.925 310.995 526.961 313.353 526.998 315.829C527.047 319.047 527.099 322.466 526.973 325.422C526.956 325.815 526.941 326.205 526.926 326.589C526.738 331.314 526.583 335.21 524.524 335.107C522.769 335.019 522.813 333.478 522.91 330.049C522.936 329.128 522.966 328.071 522.966 326.869V309.281C522.966 303.715 521.183 302.872 517.289 302.713C516.078 302.664 514.899 302.674 513.802 302.684Z" fill="#362E53"/>
<path d="M349.005 580.348C348.842 582.439 353.217 582.593 356.727 582.593H567.54C574.033 582.593 574.91 581.695 574.91 580.348C574.91 578.822 572.454 578.253 567.891 578.253H356.727C353.217 578.253 349.181 578.103 349.005 580.348Z" fill="#362E53"/>
<path d="M174.033 501.759C182.152 497.661 202.606 486.886 218.133 490.18C231.31 492.975 223.857 508.946 243.954 505.353C262.564 502.025 278.659 498.997 298.091 499.264C317.524 499.53 334.174 508.342 368.126 496.671C372.248 495.254 372.426 493.64 371.661 492.709C370.946 491.839 368.999 492.043 367.069 492.709C365.139 493.374 362.797 494.093 358.402 495.19C332.382 502.111 317.291 495.371 298.324 494.971C279.358 494.572 248.014 500.428 243.621 501.293C228.65 504.242 233.373 491.444 222.792 487.318C218.404 485.607 210.913 483.991 194.076 488.982C182.494 492.416 174.69 496.849 171.602 499.547C169.869 501.06 170.443 501.934 170.718 502.208C171.192 502.683 171.857 502.857 174.033 501.759Z" fill="#362E53"/>
</svg>
