<?xml version="1.0" standalone="no"?>
<!DOCTYPE svg PUBLIC "-//W3C//DTD SVG 20010904//EN"
 "http://www.w3.org/TR/2001/REC-SVG-20010904/DTD/svg10.dtd">
<svg version="1.0" xmlns="http://www.w3.org/2000/svg"
     width="32" height="32" viewBox="0 0 1024.000000 1024.000000"
     preserveAspectRatio="xMidYMid meet">
  <metadata>
    Created by potrace 1.16, written by Peter Selinger 2001-2019
  </metadata>
  <g transform="translate(-860,2120.000000) scale(0.270000,-0.27000)"
     fill="#5ab3fc" stroke="none">
    <path d="M4950 7889 c-315 -35 -620 -177 -849 -395 -143 -135 -251 -291 -251
    -362 0 -50 16 -79 85 -147 55 -56 70 -65 100 -65 43 0 62 18 125 120 98 159
    319 346 494 419 343 143 679 129 1006 -41 126 -65 208 -127 316 -241 134 -141
    224 -302 281 -504 25 -90 27 -112 28 -278 0 -167 -2 -188 -29 -292 -36 -136
    -34 -143 69 -242 83 -81 110 -89 157 -44 36 35 93 206 114 347 21 136 14 392
    -15 528 -59 274 -194 539 -372 732 -317 342 -791 517 -1259 465z"/>
    <path d="M4951 7330 c-221 -47 -453 -185 -582 -347 -145 -183 -211 -368 -212
    -598 -1 -151 20 -250 78 -370 48 -99 110 -180 119 -155 3 8 6 123 8 255 3 224
    5 243 26 290 27 59 49 84 120 137 47 35 59 52 111 161 78 161 109 202 174 233
    51 23 57 24 327 24 268 0 276 -1 325 -24 70 -32 98 -69 176 -233 38 -79 72
    -143 78 -143 28 0 111 -83 140 -141 l31 -62 1 -231 c0 -127 4 -239 8 -250 6
    -16 11 -14 39 18 18 21 47 67 66 104 188 374 79 847 -262 1128 -78 64 -254
    154 -362 185 -85 24 -330 35 -409 19z"/>
    <path d="M4818 6860 c-48 -26 -65 -51 -133 -203 -55 -122 -60 -130 -110 -162
    -29 -18 -65 -49 -80 -69 -49 -64 -54 -95 -55 -317 0 -194 1 -208 21 -233 l20
    -26 639 0 639 0 15 22 c13 19 16 59 16 243 0 210 -1 222 -24 271 -23 49 -46
    72 -115 117 -28 18 -45 47 -93 152 -33 72 -71 145 -85 164 -44 58 -64 61 -355
    61 -240 -1 -266 -3 -300 -20z m535 -158 c17 -19 77 -145 77 -162 0 -7 -106
    -10 -310 -10 -170 0 -310 2 -310 5 0 10 61 139 76 163 14 22 17 22 233 22 197
    0 219 -2 234 -18z m-545 -399 c32 -20 62 -72 62 -108 0 -64 -67 -125 -137
    -125 -38 0 -89 32 -108 69 -58 114 74 233 183 164z m764 0 c51 -25 74 -107 45
    -163 -17 -34 -74 -70 -111 -70 -76 0 -145 75 -132 145 18 93 108 134 198 88z"/>
    <path d="M3708 6834 c-38 -20 -55 -57 -73 -159 -20 -117 -20 -399 0 -525 32
    -193 125 -419 255 -615 131 -199 263 -338 346 -365 70 -24 160 8 208 73 16 21
    21 43 21 87 l0 59 -126 123 c-188 184 -275 310 -337 488 -61 176 -79 349 -59
    576 l8 91 -54 64 c-56 66 -122 119 -148 119 -7 -1 -26 -7 -41 -16z"/>
    <path d="M4411 5743 c13 -35 84 -109 124 -130 81 -43 172 -33 237 25 37 33 78
    98 78 122 0 6 -76 10 -225 10 l-225 0 11 -27z"/>
    <path d="M5385 5748 c11 -38 52 -95 87 -122 73 -55 182 -52 261 8 42 32 96
    101 97 124 0 9 -52 12 -226 12 l-225 0 6 -22z"/>
    <path d="M6041 5678 c-103 -118 -221 -234 -304 -300 -105 -84 -108 -89 -349
    -498 -405 -689 -418 -712 -418 -756 0 -54 33 -103 90 -132 48 -25 100 -24 141
    1 11 6 71 86 133 177 386 567 697 992 865 1185 69 79 101 137 101 182 0 58
    -132 193 -189 193 -16 0 -39 -18 -70 -52z"/>
    <path d="M5160 5638 c-80 -43 -120 -129 -120 -257 0 -90 -7 -95 -144 -101
    -107 -5 -118 -7 -140 -30 -48 -48 -256 -432 -256 -471 0 -28 32 -80 165 -264
    59 -82 115 -151 124 -153 12 -2 34 27 76 100 84 146 232 392 402 666 81 131
    153 254 160 275 37 108 -56 244 -175 254 -36 4 -57 -1 -92 -19z"/>
  </g>
</svg>
